<?xml version="1.0" standalone="no"?>
<!DOCTYPE svg PUBLIC "-//W3C//DTD SVG 20010904//EN"
 "http://www.w3.org/TR/2001/REC-SVG-20010904/DTD/svg10.dtd">
<svg version="1.0" xmlns="http://www.w3.org/2000/svg"
 width="1161.000000pt" height="1280.000000pt" viewBox="0 0 1161.000000 1280.000000"
 preserveAspectRatio="xMidYMid meet">
<metadata>
Created by potrace 1.15, written by Peter Selinger 2001-2017
</metadata>
<g transform="translate(0.000000,1280.000000) scale(0.100000,-0.100000)"
fill="#000000" stroke="none">
<path d="M5710 12764 c0 -48 -74 -336 -124 -482 -97 -280 -176 -461 -366 -837
-215 -424 -366 -688 -934 -1625 -679 -1122 -943 -1594 -1169 -2090 -402 -884
-525 -1494 -416 -2075 185 -994 743 -1814 1574 -2312 242 -145 564 -281 803
-338 90 -22 89 -30 -2 -11 -43 9 -80 11 -104 6 -20 -5 -95 -16 -167 -25 -145
-18 -187 -27 -260 -55 -27 -10 -79 -27 -115 -38 -102 -31 -164 -63 -188 -94
-7 -10 -19 -18 -26 -18 -39 0 -126 -65 -126 -94 0 -9 -11 -21 -24 -26 -14 -5
-30 -19 -37 -32 -6 -13 -25 -38 -40 -56 -39 -45 -38 -80 6 -132 19 -23 35 -47
35 -54 0 -7 11 -18 25 -24 14 -7 29 -20 32 -29 12 -30 56 -68 101 -86 24 -10
58 -31 75 -47 18 -17 43 -33 57 -37 14 -3 27 -9 30 -13 3 -3 34 -14 70 -24 36
-10 88 -27 115 -37 111 -41 199 -55 570 -91 179 -18 1221 -18 1400 0 371 36
459 50 570 91 28 10 79 27 115 37 36 10 67 21 70 24 3 4 16 10 30 13 14 4 39
20 57 37 17 16 51 37 75 47 45 18 89 56 101 86 3 9 18 22 32 29 14 6 25 17 25
24 0 7 16 31 35 54 44 52 45 87 6 132 -15 18 -34 43 -40 56 -7 13 -23 27 -37
32 -13 5 -24 17 -24 26 0 29 -87 94 -126 94 -7 0 -19 8 -26 18 -27 35 -110 74
-238 110 -19 6 -61 20 -92 31 -64 24 -258 54 -448 71 -69 6 -132 13 -140 15
-9 3 -58 -4 -109 -15 -52 -12 -96 -19 -98 -16 -2 2 31 11 74 21 296 63 625
195 905 362 707 422 1239 1159 1453 2013 170 679 107 1325 -201 2065 -175 423
-407 838 -922 1650 -621 980 -799 1277 -1052 1755 -307 582 -589 1269 -735
1790 -40 141 -55 175 -55 124z m-507 -9791 c-7 -2 -21 -2 -30 0 -10 3 -4 5 12
5 17 0 24 -2 18 -5z m1015 0 c-10 -2 -26 -2 -35 0 -10 3 -2 5 17 5 19 0 27 -2
18 -5z m-971 -9 c-3 -3 -12 -4 -19 -1 -8 3 -5 6 6 6 11 1 17 -2 13 -5z m906
-1 c-7 -2 -19 -2 -25 0 -7 3 -2 5 12 5 14 0 19 -2 13 -5z m-856 -9 c-3 -3 -12
-4 -19 -1 -8 3 -5 6 6 6 11 1 17 -2 13 -5z"/>
</g>
</svg>
